<?xml version="1.0" encoding="utf-8"?><!DOCTYPE svg PUBLIC "-//W3C//DTD SVG 1.1//EN" "http://www.w3.org/Graphics/SVG/1.1/DTD/svg11.dtd"><svg xmlns="http://www.w3.org/2000/svg" xmlns:xlink="http://www.w3.org/1999/xlink"><symbol viewBox="0 0 10 28" id="angle-right"><path fill="#444" d="M9.297 15q0 .203-.156.36l-7.28 7.28q-.156.156-.36.156t-.358-.156l-.78-.78q-.157-.157-.157-.36t.156-.36L6.503 15 .362 8.86Q.204 8.702.204 8.5t.156-.36l.782-.78q.156-.156.36-.156t.358.156l7.28 7.28q.157.157.157.36z"/></symbol><symbol viewBox="0 0 27.039 5.153" id="eightshapes-logo"><path d="M8.268 3.816c-.154.056-.33.142-.69.142-.774 0-1.13-.472-1.13-1.183 0-.647.406-1.106 1.023-1.106.73 0 .966.53.966 1.234h-1.56c0 .432.338.728.72.728.266 0 .573-.137.672-.22v.404zm-.26-1.212c0-.334-.198-.61-.545-.61-.395 0-.558.327-.588.61h1.132zM9.152 1.232h-.455V.778h.455v.454zm-.427.488h.402v2.186h-.402V1.72zM11.494 3.812c0 .665-.343 1.047-1.127 1.047-.23 0-.433-.03-.785-.15l.044-.375c.31.143.493.198.788.198.424 0 .678-.288.678-.75v-.216h-.01c-.17.227-.453.34-.732.34-.625 0-.934-.51-.934-1.077 0-.562.316-1.162.977-1.162.387 0 .6.142.72.377h.01V1.72h.372v2.092zm-.402-.973c0-.455-.21-.845-.64-.845-.406 0-.608.442-.608.814 0 .41.232.77.61.77s.638-.334.638-.74zM11.794.692h.402v1.342h.01c.145-.23.397-.365.702-.365.565 0 .818.35.818.937v1.3h-.402V2.774c0-.51-.11-.76-.463-.78-.458 0-.664.37-.664.9v1.012h-.402V.692zM15.27 2.046h-.577V3.24c0 .254.153.39.338.39a.488.488 0 0 0 .274-.076v.343c-.09.026-.214.06-.342.06-.416 0-.674-.196-.674-.633V2.046h-.492V1.72h.492v-.505l.404-.13v.635h.578v.326zM15.485 3.478c.158.103.386.154.502.154.184 0 .41-.077.41-.313 0-.4-.946-.365-.946-.978 0-.455.34-.673.772-.673.188 0 .343.038.5.085l-.033.352a1.172 1.172 0 0 0-.425-.112c-.206 0-.387.086-.387.266 0 .447.948.318.948 1.016 0 .467-.374.682-.764.682-.206 0-.415-.022-.6-.12l.023-.36zM17.013.692h.402v1.342h.01c.145-.23.398-.365.702-.365.565 0 .818.35.818.937v1.3h-.403V2.774c0-.51-.11-.76-.462-.78-.46 0-.665.37-.665.9v1.012h-.402V.692zM19.403 1.875c.202-.12.442-.206.72-.206.627 0 .88.308.88.903v.904c0 .248.008.364.017.43h-.378v-.284h-.008a.812.812 0 0 1-.678.335c-.47 0-.8-.206-.8-.682 0-.548.6-.72 1.014-.72.16 0 .27 0 .43.01 0-.378-.138-.57-.54-.57a1.03 1.03 0 0 0-.635.222l-.022-.343zm1.197.99c-.086 0-.172-.008-.258-.008-.22 0-.758.034-.758.42 0 .23.222.355.406.355.4 0 .61-.25.61-.574v-.193zM21.298 1.72h.386v.31h.008c.106-.164.356-.36.74-.36.635 0 .944.518.944 1.105 0 .6-.28 1.183-.938 1.183-.386 0-.605-.15-.73-.352H21.7v1.2h-.402V1.72zm1.05.275c-.438 0-.647.416-.647.823 0 .364.19.814.644.814.434 0 .613-.484.604-.827.008-.394-.164-.81-.6-.81zM25.345 3.816c-.154.056-.33.142-.69.142-.776 0-1.132-.472-1.132-1.183 0-.647.408-1.106 1.024-1.106.73 0 .964.53.964 1.234h-1.558c0 .432.338.728.72.728.265 0 .574-.137.673-.22v.404zm-.262-1.212c0-.334-.197-.61-.545-.61-.394 0-.557.327-.586.61h1.13zM25.698 3.478c.158.103.385.154.5.154.185 0 .412-.077.412-.313 0-.4-.947-.365-.947-.978 0-.455.34-.673.77-.673.19 0 .344.038.503.085l-.035.352a1.167 1.167 0 0 0-.423-.112c-.205 0-.385.086-.385.266 0 .447.946.318.946 1.016 0 .467-.372.682-.763.682-.206 0-.416-.022-.6-.12l.023-.36z"/><g><path d="M1.393 3.396c.06.06.06.157 0 .217l-.565.566a.153.153 0 0 1-.218 0l-.565-.567a.153.153 0 0 1 0-.217L.61 2.83c.06-.06.158-.06.218 0l.565.566zM2.323 4.326c.06.06.06.156 0 .216l-.566.566a.153.153 0 0 1-.217 0l-.565-.566a.152.152 0 0 1 0-.216l.565-.566c.06-.06.157-.06.217 0l.566.566zM1.756 3.25a.153.153 0 0 1-.217 0l-.566-.565a.153.153 0 0 1 0-.217l.565-.566c.06-.06.156-.06.216 0l.566.566c.06.06.06.157 0 .217l-.566.565zM.828 2.322a.153.153 0 0 1-.217 0l-.565-.565a.153.153 0 0 1 0-.217L.61.975c.06-.06.157-.06.217 0l.567.565c.06.06.06.157 0 .217l-.566.565zM3.614 5.108a.153.153 0 0 1-.217 0L1.903 3.614a.155.155 0 0 1 0-.218l.566-.565c.06-.06.156-.06.216 0L4.18 4.326c.06.06.06.157 0 .217l-.566.566zM4.542 4.18a.152.152 0 0 1-.217 0L1.902 1.755a.153.153 0 0 1 0-.217l.566-.566c.06-.06.157-.06.217 0l2.422 2.422c.06.06.06.157 0 .217l-.565.566zM1.756 1.394a.153.153 0 0 1-.217 0L.973.828a.153.153 0 0 1 0-.217L1.54.046c.06-.06.157-.06.217 0l.566.566c.06.06.06.158 0 .218l-.567.566zM4.542 2.322a.153.153 0 0 1-.217 0L2.83.828a.153.153 0 0 1 0-.217l.566-.564c.06-.06.157-.06.217 0L5.107 1.54c.06.06.06.157 0 .217l-.565.565z"/></g></symbol><symbol viewBox="0 0 28 28" id="eightshapes-mark"><path d="M7.642 18.404a.825.825 0 0 1 0 1.168L4.604 22.61a.824.824 0 0 1-1.17 0L.398 19.572a.825.825 0 0 1 0-1.168l3.036-3.04a.835.835 0 0 1 1.17 0l3.038 3.04zM12.64 23.403c.322.32.322.84 0 1.16l-3.042 3.044a.826.826 0 0 1-1.166 0l-3.04-3.043a.817.817 0 0 1 0-1.16l3.04-3.044a.828.828 0 0 1 1.166 0l3.04 3.043zM9.592 17.623a.823.823 0 0 1-1.165 0l-3.04-3.042a.82.82 0 0 1 0-1.164l3.04-3.042a.82.82 0 0 1 1.165 0l3.042 3.042a.823.823 0 0 1 0 1.165l-3.042 3.043zM4.606 12.634a.825.825 0 0 1-1.168 0l-3.04-3.04a.825.825 0 0 1 0-1.167l3.04-3.04a.825.825 0 0 1 1.168 0l3.04 3.04a.825.825 0 0 1 0 1.168l-3.04 3.04zM19.58 27.607a.83.83 0 0 1-1.17 0l-8.028-8.03a.827.827 0 0 1 0-1.17l3.042-3.04a.827.827 0 0 1 1.165 0l8.03 8.03a.82.82 0 0 1 0 1.167l-3.04 3.043zM24.566 22.61a.82.82 0 0 1-1.166 0L10.377 9.593a.825.825 0 0 1 0-1.168l3.04-3.04a.825.825 0 0 1 1.17 0l13.018 13.02a.83.83 0 0 1 0 1.167l-3.04 3.038zM9.594 7.645a.82.82 0 0 1-1.165 0l-3.04-3.04a.823.823 0 0 1 0-1.167L8.43.398a.82.82 0 0 1 1.165 0l3.042 3.04a.823.823 0 0 1 0 1.166l-3.043 3.04zM24.566 12.63a.823.823 0 0 1-1.166 0L15.368 4.6a.824.824 0 0 1 0-1.166l3.038-3.04a.826.826 0 0 1 1.17 0l8.028 8.03a.83.83 0 0 1 0 1.17l-3.038 3.037z"/></symbol><symbol viewBox="0 0 24 28" id="linkedin"><path d="M5.453 9.766V25.25H.297V9.766h5.156zm.328-4.782q.017 1.14-.788 1.906t-2.117.766h-.03q-1.282 0-2.064-.766T0 4.984Q0 3.828.805 3.07t2.102-.758 2.078.758.797 1.914zM24 16.374v8.876h-5.14v-8.28q0-1.642-.634-2.57t-1.977-.93q-.985 0-1.65.538t-.99 1.336q-.173.47-.173 1.266v8.64h-5.14q.03-6.233.03-10.108t-.016-4.625l-.015-.75h5.14v2.25h-.03q.313-.5.64-.875t.884-.812 1.358-.68 1.79-.242q2.67 0 4.296 1.773T24 16.377z"/></symbol><symbol viewBox="0 0 28 28" id="medium"><path d="M9.328 6.578v18.328q0 .39-.195.664t-.57.273q-.266 0-.516-.125L.78 22.078q-.327-.157-.554-.524T0 20.827V3.014q0-.313.155-.53t.453-.22q.22 0 .688.234l7.984 4q.047.047.047.078zm1 1.578l8.344 13.53-8.344-4.155V8.157zM28 8.436v16.47q0 .39-.22.633t-.593.24-.734-.202l-6.89-3.437zm-.047-1.873q0 .047-4.008 6.555t-4.695 7.617l-6.094-9.906 5.063-8.235q.265-.438.81-.438.22 0 .407.094l8.453 4.22q.063.03.063.094z"/></symbol><symbol viewBox="0 0 26 28" id="twitter"><path d="M25.312 6.375q-1.047 1.53-2.53 2.61.015.218.015.655 0 2.03-.594 4.055t-1.805 3.883-2.883 3.29-4.03 2.28T8.436 24q-4.234 0-7.75-2.266.547.063 1.22.063 3.515 0 6.265-2.156-1.64-.03-2.938-1.007t-1.78-2.492q.515.08.952.08.672 0 1.328-.173-1.75-.36-2.898-1.742t-1.148-3.21v-.064q1.062.595 2.28.642-1.03-.688-1.64-1.797t-.61-2.406q0-1.376.69-2.548 1.89 2.328 4.6 3.727t5.806 1.554q-.125-.594-.125-1.156 0-2.094 1.476-3.57T17.736 4q2.188 0 3.687 1.595 1.703-.328 3.203-1.22-.578 1.798-2.22 2.782 1.454-.156 2.907-.78z"/></symbol></svg>