<?xml version="1.0" encoding="utf-8"?>
<!-- Generator: Adobe Illustrator 16.0.4, SVG Export Plug-In . SVG Version: 6.00 Build 0)  -->
<!DOCTYPE svg PUBLIC "-//W3C//DTD SVG 1.1//EN" "http://www.w3.org/Graphics/SVG/1.1/DTD/svg11.dtd">
<svg version="1.1" id="Layer_1" xmlns="http://www.w3.org/2000/svg" xmlns:xlink="http://www.w3.org/1999/xlink" x="0px" y="0px"
	 width="28px" height="28px" viewBox="0 0 28 28" enable-background="new 0 0 28 28" xml:space="preserve">
<g>
	<path d="M7.642,18.404c0.323,0.322,0.323,0.846,0,1.168L4.604,22.61c-0.323,0.325-0.845,0.325-1.17,0l-3.036-3.038
		c-0.323-0.322-0.323-0.846,0-1.168l3.036-3.039c0.326-0.319,0.848-0.319,1.17,0L7.642,18.404z"/>
	<path d="M12.639,23.403c0.323,0.321,0.323,0.841,0,1.161l-3.041,3.043c-0.323,0.321-0.845,0.321-1.166,0
		l-3.039-3.043c-0.323-0.32-0.323-0.84,0-1.161l3.039-3.043c0.32-0.32,0.843-0.32,1.166,0L12.639,23.403z"/>
	<path d="M9.592,17.623c-0.323,0.322-0.842,0.322-1.165,0l-3.04-3.042c-0.323-0.323-0.323-0.843,0-1.165l3.04-3.042
		c0.322-0.323,0.842-0.323,1.165,0l3.042,3.042c0.322,0.322,0.322,0.842,0,1.165L9.592,17.623z"/>
	<path d="M4.606,12.634c-0.323,0.323-0.845,0.323-1.168,0L0.399,9.595c-0.323-0.323-0.323-0.845,0-1.168l3.039-3.039
		c0.323-0.323,0.845-0.323,1.168,0l3.039,3.039c0.323,0.323,0.323,0.845,0,1.168L4.606,12.634z"/>
	<path d="M19.58,27.607c-0.32,0.321-0.845,0.321-1.169,0l-8.029-8.029c-0.323-0.323-0.323-0.848,0-1.17l3.042-3.04
		c0.322-0.32,0.842-0.32,1.165,0l8.031,8.03c0.325,0.326,0.325,0.846,0,1.166L19.58,27.607z"/>
	<path d="M24.566,22.61c-0.32,0.325-0.846,0.325-1.166,0L10.377,9.593c-0.323-0.323-0.323-0.845,0-1.168l3.041-3.039
		c0.323-0.323,0.845-0.323,1.168,0l13.019,13.018c0.32,0.322,0.32,0.846,0,1.168L24.566,22.61z"/>
	<path d="M9.594,7.645c-0.319,0.323-0.842,0.323-1.165,0L5.391,4.604c-0.323-0.323-0.323-0.845,0-1.166L8.43,0.397
		c0.323-0.323,0.845-0.323,1.165,0l3.042,3.041c0.323,0.321,0.323,0.843,0,1.166L9.594,7.645z"/>
	<path d="M24.566,12.631c-0.32,0.323-0.846,0.323-1.166,0l-8.032-8.03c-0.323-0.322-0.323-0.845,0-1.167l3.038-3.039
		c0.324-0.323,0.844-0.323,1.169,0l8.029,8.03c0.32,0.323,0.32,0.845,0,1.168L24.566,12.631z"/>
</g>
</svg>
