<?xml version="1.0" encoding="utf-8"?>
<!-- Generator: Adobe Illustrator 19.1.0, SVG Export Plug-In . SVG Version: 6.00 Build 0)  -->
<svg version="1.1" xmlns="http://www.w3.org/2000/svg" xmlns:xlink="http://www.w3.org/1999/xlink" x="0px" y="0px" width="24px"
	 height="24px" viewBox="0 0 24 24" style="enable-background:new 0 0 24 24;" xml:space="preserve">
<g id="Layer_1" style="display:none;">
	<g style="display:inline;">
		<defs>
			<rect id="SVGID_1_" x="-372" y="-675" width="768" height="1375"/>
		</defs>
		<use xlink:href="#SVGID_1_"  style="overflow:visible;"/>
		<clipPath id="SVGID_2_">
			<use xlink:href="#SVGID_1_"  style="overflow:visible;"/>
		</clipPath>
		<g style="opacity:0.4983;clip-path:url(#SVGID_2_);enable-background:new    ;">
			<g>
				<defs>
					<rect id="SVGID_3_" x="-269" y="-217" width="20" height="24"/>
				</defs>
				<use xlink:href="#SVGID_3_"  style="overflow:visible;"/>
				<clipPath id="SVGID_4_">
					<use xlink:href="#SVGID_3_"  style="overflow:visible;"/>
				</clipPath>
				<g style="clip-path:url(#SVGID_4_);">
					<defs>
						<rect id="SVGID_5_" x="-269" y="-217" width="20" height="24"/>
					</defs>
					<use xlink:href="#SVGID_5_"  style="overflow:visible;"/>
					<clipPath id="SVGID_6_">
						<use xlink:href="#SVGID_5_"  style="overflow:visible;"/>
					</clipPath>
					<g style="clip-path:url(#SVGID_6_);enable-background:new    ;">
						<g>
							<defs>
								<rect id="SVGID_7_" x="-269" y="-217" width="20" height="24"/>
							</defs>
							<use xlink:href="#SVGID_7_"  style="overflow:visible;"/>
							<clipPath id="SVGID_8_">
								<use xlink:href="#SVGID_7_"  style="overflow:visible;"/>
							</clipPath>
							<g style="clip-path:url(#SVGID_8_);">
								<defs>
									<rect id="SVGID_9_" x="-269" y="-217" width="20" height="24"/>
								</defs>
								<use xlink:href="#SVGID_9_"  style="overflow:visible;"/>
								<clipPath id="SVGID_10_">
									<use xlink:href="#SVGID_9_"  style="overflow:visible;"/>
								</clipPath>
								<circle style="clip-path:url(#SVGID_10_);" cx="-259" cy="-203" r="9.5"/>
								<line style="clip-path:url(#SVGID_10_);" x1="-262" y1="-216.5" x2="-256" y2="-216.5"/>
								<line style="clip-path:url(#SVGID_10_);" x1="-252.3" y1="-209.7" x2="-250.5" y2="-211.5"/>
								<polyline style="clip-path:url(#SVGID_10_);" points="-260.5,-212.5 -260.5,-216.5 -257.5,-216.5 
									-257.5,-212.5 								"/>
								<line style="clip-path:url(#SVGID_10_);" x1="-251" y1="-212" x2="-250" y2="-211"/>
								<line style="clip-path:url(#SVGID_10_);" x1="-259" y1="-203" x2="-263.5" y2="-207.5"/>
							</g>
						</g>
					</g>
				</g>
			</g>
		</g>
	</g>
	<g style="display:inline;">
		<path style="" d="M19.4,7.3l1.1-1.1l0.1,0.1c0.1,0.1,0.2,0.1,0.4,0.1s0.3,0,0.4-0.1c0.2-0.2,0.2-0.5,0-0.7l-1-1
			c-0.2-0.2-0.5-0.2-0.7,0s-0.2,0.5,0,0.7l0.1,0.1l-1.1,1.1c-1.3-1.2-2.9-2-4.7-2.4V1h1c0.3,0,0.5-0.2,0.5-0.5S15.3,0,15,0h-1.5h-3
			H9C8.7,0,8.5,0.2,8.5,0.5S8.7,1,9,1h1v3.2c-4.6,0.9-8,5-8,9.8c0,5.5,4.5,10,10,10c5.5,0,10-4.5,10-10C22,11.4,21,9.1,19.4,7.3z
			 M11,1h2v3.1C12.7,4,12.3,4,12,4s-0.7,0-1,0.1V1z M12,23c-5,0-9-4-9-9c0-5,4-9,9-9c5,0,9,4,9,9C21,19,17,23,12,23z"/>
		<path style="" d="M7.9,9.1C7.7,9,7.3,9,7.1,9.1S7,9.7,7.1,9.9l4.5,4.5c0.1,0.1,0.2,0.1,0.4,0.1s0.3,0,0.4-0.1
			c0.2-0.2,0.2-0.5,0-0.7L7.9,9.1z"/>
	</g>
</g>
<g id="Layer_2">
	<g>
		<g>
			<path style="" d="M15.5,22h-15C0.2,22,0,21.8,0,21.5V17c0-1,3.6-2.6,5.5-3.3v-1.4c-0.4-0.3-0.9-1-1-2.4
				C4.1,9.6,3.9,9,3.9,8.4c0-0.3,0.1-0.6,0.2-0.9c0.1-0.1,0.2-0.2,0.3-0.3C4.1,6.5,3.6,5.5,4.2,4.8c0.2-0.3,0.6-0.4,1-0.4
				C5.7,3.4,7.3,3,8.5,3c1.4,0,3.1,0.5,3.5,1.9c0.2,0.9-0.1,1.8-0.3,2.3c0.1,0.1,0.2,0.2,0.2,0.3c0.1,0.2,0.2,0.5,0.2,0.9
				c0,0.6-0.2,1.2-0.7,1.5c-0.1,1.5-0.6,2.1-1,2.4v1.4C12.4,14.4,16,16,16,17v4.5C16,21.8,15.8,22,15.5,22z M1,21h14v-3.9
				c-0.4-0.4-2.6-1.6-5.2-2.6c-0.2-0.1-0.3-0.3-0.3-0.5v-2c0-0.2,0.1-0.4,0.3-0.5l0,0c0,0,0.7-0.3,0.7-2C10.5,9.2,10.7,9,11,9
				c0,0,0.1-0.3,0.1-0.7c0-0.2-0.1-0.3-0.1-0.3c-0.3,0-0.5-0.2-0.5-0.5c0-0.2,0.1-0.3,0.2-0.5c0.2-0.4,0.5-1.1,0.3-1.9
				C10.9,4.5,9.8,4,8.5,4S6.1,4.5,6,5.1C5.9,5.4,5.7,5.5,5.4,5.5c-0.4-0.1-0.5,0-0.5,0c-0.1,0.1,0,0.4,0.4,1.4
				c0.1,0.3,0.2,0.5,0.2,0.6c0,0.1-0.1,0.3-0.1,0.4S5.1,8,5,8c0,0-0.1,0-0.1,0.1C4.8,8.5,4.9,8.9,5.1,9c0.3,0,0.4,0.2,0.4,0.5
				c0,1.7,0.7,2,0.7,2c0.2,0.1,0.3,0.3,0.3,0.5v2c0,0.2-0.1,0.4-0.3,0.5c-2.6,1-4.8,2.2-5.2,2.6V21z"/>
		</g>
		<g>
			<path style="" d="M23.5,22H18c-0.3,0-0.5-0.2-0.5-0.5S17.7,21,18,21h5v-3.9c-0.3-0.2-1.5-0.7-2.4-1
				c-0.6-0.2-1.2-0.4-1.8-0.7c-0.2-0.1-0.3-0.3-0.3-0.5v-1.5c0-0.2,0.1-0.4,0.4-0.5c0,0,0.6-0.2,0.6-1.5c0-0.2,0.2-0.4,0.4-0.5
				c0.1-0.2,0.2-0.9,0-1c-0.3,0-0.4-0.2-0.4-0.5c0-0.2,0.1-0.3,0.2-0.5c0.2-0.3,0.5-0.9,0.3-1.3c-0.1-0.4-1-0.8-2-0.8
				s-1.9,0.3-2,0.8C15.9,7.9,15.7,8,15.4,8c-0.2-0.1-0.3,0-0.3,0c0,0.1,0.1,0.5,0.3,1c0.1,0.2,0.1,0.4,0.1,0.5
				c0,0.3-0.2,0.5-0.5,0.5c-0.1,0.1,0,0.8,0.1,1c0.2,0.1,0.4,0.3,0.4,0.5c0,1.3,0.6,1.5,0.6,1.5c0.2,0.1,0.4,0.3,0.4,0.5v1
				c0,0.3-0.2,0.5-0.5,0.5s-0.5-0.2-0.5-0.5v-0.7c-0.4-0.2-0.9-0.8-1-2c-0.3-0.3-0.5-0.9-0.5-1.5c0-0.2,0-0.6,0.2-0.8
				c0.1-0.1,0.1-0.2,0.2-0.3c-0.2-0.6-0.5-1.4,0-1.9C14.5,7.1,14.8,7,15.2,7C15.8,6.2,17,5.9,18,5.9c1.1,0,2.6,0.4,3,1.5
				c0.3,0.8-0.1,1.5-0.3,2c0.1,0.1,0.1,0.2,0.2,0.2C21,9.8,21,10.2,21,10.4c0,0.6-0.2,1.2-0.5,1.4c-0.1,1.2-0.6,1.7-1,2v0.9
				c0.5,0.2,1,0.4,1.4,0.5C23.1,16,24,16.3,24,17v4.5C24,21.8,23.8,22,23.5,22z"/>
		</g>
	</g>
</g>
</svg>
